<svg width="26" height="24" viewBox="0 0 26 24" fill="none" xmlns="http://www.w3.org/2000/svg">
<path d="M22.6251 6.44298C24.111 9.01666 24.8539 10.3035 24.9238 11.7107C24.9334 11.9034 24.9334 12.0965 24.9238 12.2892C24.8539 13.6965 24.111 14.9833 22.6251 17.557C21.1391 20.1307 20.3962 21.4175 19.2124 22.1816C19.0503 22.2863 18.8831 22.3828 18.7114 22.4709C17.4578 23.114 15.9719 23.114 13.0001 23.114C10.0282 23.114 8.54232 23.114 7.2887 22.4709C7.11702 22.3828 6.94981 22.2863 6.78769 22.1816C5.60394 21.4175 4.86098 20.1307 3.37507 17.557C1.88915 14.9833 1.1462 13.6965 1.07633 12.2892C1.06676 12.0965 1.06676 11.9034 1.07633 11.7107C1.1462 10.3035 1.88915 9.01666 3.37507 6.44298C4.86098 3.8693 5.60394 2.58247 6.78769 1.81835C6.94981 1.7137 7.11702 1.61716 7.2887 1.52909C8.54232 0.885986 10.0282 0.885986 13.0001 0.885986C15.9719 0.885986 17.4578 0.885987 18.7114 1.52909C18.8831 1.61716 19.0503 1.7137 19.2124 1.81835C20.3962 2.58247 21.1392 3.86931 22.6251 6.44298Z" stroke="#737373" stroke-width="1.5"/>
<path d="M10.6854 10.9545C10.9224 10.3792 11.3793 9.92227 11.9546 9.68536L15.0776 8.39941C16.0366 8.00456 16.9955 8.96349 16.6006 9.92241L15.3147 13.0454C15.0778 13.6208 14.6209 14.0777 14.0455 14.3146L10.9225 15.6006C9.96357 15.9954 9.00465 15.0365 9.3995 14.0775L10.6854 10.9545Z" stroke="#737373" stroke-width="1.5"/>
</svg>
